# xmcd
#
# Track frame offsets:
#	150
#	12348
#	27367
#	42970
#	56874
#	70834
#	86215
#	100119
#	114051
#	125197
#	137596
#	152587
#	166631
#	180730
#	196473
#	211575
#	225730
#	241473
#	254263
#	266997
#	281514
#	294554
#	308012
#	322362
#	335012
#
# Disc length: 4641
#
# Revision: 2
# Processed by: cddbd v1.5.1PL0 Copyright (c) Steve Scherf et al.
# Submitted via: CDex 1.30Release
# Normalized: r1:TDELIM( - )
#
DISCID=71121f19
DTITLE=Crooners - Les 100 Plus Grands Succes
DYEAR=2002
DGENRE=Blues
TTITLE0=Bing Crosby - Accentuate The Positive
TTITLE1=Bing Crosby - They Can't Take That Away From Me
TTITLE2=Bing Crosby - A Nightingale Sang In Berkeley Square
TTITLE3=Bing Crosby - You Made Me Love You
TTITLE4=Bing Crosby - Wrap Your Troubles In Dreams
TTITLE5=Bing Crosby - Autumn Leaves
TTITLE6=Bing Crosby - Shoe Shine Boy
TTITLE7=Bing Crosby - White Christmas
TTITLE8=Bing Crosby - Swinging On A Star
TTITLE9=Bing Crosby - On The Sunny Side Of The Street
TTITLE10=Perry Como - I Wonder Whio's Kissing
TTITLE11=Perry Como - Till The End Of Time
TTITLE12=Perry Como - If I Loved You
TTITLE13=Bob Lawrence - Smoke Gets In Your Eyes
TTITLE14=Jack Leonard - Marie
TTITLE15=Jack Leonard - Who
TTITLE16=Jack Leonard - Indian Summer
TTITLE17=Dan Grissom - Charmaine
TTITLE18=Dan Grissom - My Last Affair
TTITLE19=Dan Grissom - Coquette
TTITLE20=Dan Grissom - Down By The Old Millstream
TTITLE21=Dan Grissom - My Melancholy
TTITLE22=Dan Grissom - By The River Sainte Marie
TTITLE23=Al Bowly - Music Maestro Please
TTITLE24=Stuart Foster - How Are Things In Glocca Morra
EXTD=YEAR: 2002 ID3G:   0
EXTT0=
EXTT1=
EXTT2=
EXTT3=
EXTT4=
EXTT5=
EXTT6=
EXTT7=
EXTT8=
EXTT9=
EXTT10=
EXTT11=
EXTT12=
EXTT13=
EXTT14=
EXTT15=
EXTT16=
EXTT17=
EXTT18=
EXTT19=
EXTT20=
EXTT21=
EXTT22=
EXTT23=
EXTT24=
PLAYORDER=
